<svg width="35" height="35" viewBox="0 0 35 35" fill="none" xmlns="http://www.w3.org/2000/svg">
<path d="M33.9777 1.02252C31.5301 -1.42509 25.1925 0.803981 18.2868 6.00515C17.806 6.35481 17.1941 6.35481 16.7133 6.00515C9.80757 0.803981 3.4263 -1.42509 1.0224 1.02252C-1.42521 3.47013 0.803859 9.80769 6.00503 16.7571C6.35469 17.2379 6.35469 17.8498 6.00503 18.3306C0.803859 25.2364 -1.42521 31.6176 1.0224 34.0652C3.47001 36.5129 9.80757 34.2838 16.757 29.0826C17.2378 28.733 17.8497 28.733 18.3305 29.0826C25.2362 34.2838 31.6175 36.5129 34.0214 34.0652C36.469 31.6176 34.24 25.2801 29.0388 18.3306C28.6891 17.8498 28.6891 17.2379 29.0388 16.7571C34.24 9.80769 36.4253 3.42642 33.9777 1.02252ZM31.1367 2.94564C31.6612 2.94564 31.8798 3.07676 31.9235 3.07676C32.0546 3.20788 32.448 4.86876 30.6122 8.6713C29.8255 10.3322 28.7765 12.0805 27.4653 13.8725C26.9845 14.5718 25.9793 14.6155 25.4548 14.0036C24.7555 13.2606 24.0124 12.4738 23.2694 11.7308C22.5264 10.9878 21.7397 10.2448 20.9966 9.54544C20.3847 8.97725 20.4284 8.01569 21.1278 7.53491C25.3674 4.4754 29.0388 2.94564 31.1367 2.94564ZM23.925 16.626C24.3621 17.1068 24.3621 17.8498 23.925 18.3743C23.0946 19.3359 22.1767 20.2974 21.2152 21.259C20.2536 22.2206 19.2921 23.0947 18.3742 23.9251C17.8934 24.3622 17.1504 24.3622 16.6259 23.9251C15.6643 23.0947 14.7028 22.1769 13.7412 21.2153C12.7797 20.2537 11.9055 19.2922 11.0751 18.3743C10.638 17.8935 10.638 17.1505 11.0751 16.626C11.9055 15.6645 12.8234 14.7029 13.7849 13.7413C14.7465 12.7798 15.7081 11.9056 16.6259 11.0752C17.1067 10.6381 17.8497 10.6381 18.3742 11.0752C19.3358 11.9056 20.2973 12.8235 21.2589 13.7851C22.1767 14.7466 23.0946 15.6645 23.925 16.626ZM2.94552 3.86349C2.94552 3.339 3.07664 3.12047 3.07664 3.07676C3.20776 2.94564 4.86864 2.55227 8.67118 4.38798C10.3321 5.17471 12.0803 6.22369 13.8723 7.53491C14.5717 8.01569 14.6154 9.02096 14.0035 9.54544C13.2604 10.2448 12.4737 10.9878 11.7307 11.7308C10.9877 12.4738 10.2446 13.2606 9.54532 14.0036C8.97713 14.6155 8.01557 14.5718 7.53479 13.8725C4.47527 9.63286 2.94552 5.96144 2.94552 3.86349ZM3.86337 32.0547C3.33888 32.0547 3.12035 31.9236 3.07664 31.9236C2.94552 31.7925 2.55215 30.1316 4.38786 26.3291C5.17459 24.6682 6.22357 22.9199 7.53479 21.1279C8.01557 20.4286 9.02083 20.3849 9.54532 20.9968C10.2446 21.7398 10.9877 22.5265 11.7307 23.2695C12.4737 24.0126 13.2604 24.7556 14.0035 25.4549C14.6154 26.0231 14.5717 26.9847 13.8723 27.4654C9.63274 30.525 5.96132 32.0547 3.86337 32.0547ZM32.0546 31.1369C32.0546 31.6613 31.9235 31.8799 31.9235 31.9236C31.7923 32.0547 30.1315 32.4481 26.3289 30.6124C24.6681 29.8256 22.9198 28.7767 21.1278 27.4654C20.4284 26.9847 20.3847 25.9794 20.9966 25.4549C21.7397 24.7556 22.5264 24.0563 23.2694 23.2695C24.0124 22.5265 24.7555 21.7398 25.4548 20.9968C26.023 20.3849 26.9845 20.4286 27.4653 21.1279C30.5248 25.3675 32.0546 29.0389 32.0546 31.1369Z" fill="#191A1B"/>
<path d="M17.5219 14.4863C15.8405 14.4863 14.4647 15.8621 14.4647 17.5435C14.4647 19.225 15.8405 20.6007 17.5219 20.6007C19.2034 20.6007 20.5791 19.225 20.5791 17.5435C20.5791 15.8621 19.2034 14.4863 17.5219 14.4863ZM17.5219 18.5524C16.9716 18.5524 16.513 18.0938 16.513 17.5435C16.513 16.9932 16.9716 16.5346 17.5219 16.5346C18.0722 16.5346 18.5308 16.9932 18.5308 17.5435C18.5308 18.0938 18.0722 18.5524 17.5219 18.5524Z" fill="#2BDF27"/>
</svg>
