<svg width="35" height="35" viewBox="0 0 35 35" fill="none" xmlns="http://www.w3.org/2000/svg">
<g clip-path="url(#clip0_1189_209)">
<path d="M0 22.6793V33.631C0 34.4068 0.59322 35 1.36897 35H12.3207C13.0965 35 13.6897 34.4068 13.6897 33.631V25.7366C13.6897 24.9609 14.2829 24.3677 15.0587 24.3677H19.9413C20.7171 24.3677 21.3103 24.9609 21.3103 25.7366V33.631C21.3103 34.4068 21.9035 35 22.6793 35H33.631C34.4068 35 35 34.4068 35 33.631V22.6793C35 21.9035 34.4068 21.3103 33.631 21.3103H25.7366C24.9609 21.3103 24.3677 20.7171 24.3677 19.9413V15.0587C24.3677 14.2829 24.9609 13.6897 25.7366 13.6897H33.631C34.4068 13.6897 35 13.0965 35 12.3207V1.36897C35 0.59322 34.4068 0 33.631 0H22.6793C21.9035 0 21.3103 0.59322 21.3103 1.36897V9.26336C21.3103 10.0391 20.7171 10.6323 19.9413 10.6323H12.0469C11.2712 10.6323 10.678 11.2256 10.678 12.0013V19.9413C10.678 20.7171 10.0847 21.3103 9.309 21.3103H1.36897C0.638852 21.3103 0 21.9035 0 22.6793ZM24.3677 25.7366C24.3677 24.9609 24.9609 24.3677 25.7366 24.3677H30.6193C31.395 24.3677 31.9883 24.9609 31.9883 25.7366V30.6193C31.9883 31.395 31.395 31.9883 30.6193 31.9883H25.7366C24.9609 31.9883 24.3677 31.395 24.3677 30.6193V25.7366ZM24.3677 4.42634C24.3677 3.65059 24.9609 3.05737 25.7366 3.05737H30.6193C31.395 3.05737 31.9883 3.65059 31.9883 4.42634V9.309C31.9883 10.0847 31.395 10.678 30.6193 10.678H25.7366C24.9609 10.678 24.3677 10.0847 24.3677 9.309V4.42634ZM15.0587 13.6897H19.9413C20.7171 13.6897 21.3103 14.2829 21.3103 15.0587V19.9413C21.3103 20.7171 20.7171 21.3103 19.9413 21.3103H15.0587C14.2829 21.3103 13.6897 20.7171 13.6897 19.9413V15.0587C13.6897 14.3286 14.3286 13.6897 15.0587 13.6897ZM4.42634 24.3677H9.309C10.0847 24.3677 10.678 24.9609 10.678 25.7366V30.6193C10.678 31.395 10.0847 31.9883 9.309 31.9883H4.42634C3.65059 31.9883 3.05737 31.395 3.05737 30.6193V25.7366C3.05737 24.9609 3.65059 24.3677 4.42634 24.3677Z" fill="#191A1B"/>
<path d="M0.00926942 1.37824V11.9193C0.00926942 13.1514 1.4695 13.7446 2.33652 12.8776L12.8776 2.33652C13.7446 1.4695 13.1514 0.00926942 11.9193 0.00926942H1.37824C0.60249 0.00926942 0.00926942 0.60249 0.00926942 1.37824ZM4.43561 3.06664H6.99102C7.31044 3.06664 7.49297 3.47733 7.26481 3.70549L3.70549 7.26481C3.47733 7.49297 3.06664 7.35608 3.06664 6.99102V4.43561C3.06664 3.65986 3.65986 3.06664 4.43561 3.06664Z" fill="#191A1B"/>
<path d="M0.00927734 1.37825V11.9193C0.00927734 13.1514 1.46951 13.7446 2.33653 12.8776L12.8776 2.33653C13.7446 1.46951 13.1514 0.00927734 11.9193 0.00927734H1.37825C0.602498 0.00927734 0.00927734 0.602498 0.00927734 1.37825ZM4.43561 3.06665H6.99103C7.31045 3.06665 7.49298 3.47734 7.26482 3.7055L3.7055 7.26482C3.47734 7.49298 3.06665 7.35608 3.06665 6.99103V4.43561C3.06665 3.65986 3.65986 3.06665 4.43561 3.06665Z" fill="#2BDF27"/>
</g>
<defs>
<clipPath id="clip0_1189_209">
<rect width="35" height="35" fill="white"/>
</clipPath>
</defs>
</svg>
