<svg width="28" height="28" viewBox="0 0 28 28" fill="none" xmlns="http://www.w3.org/2000/svg">
<g clip-path="url(#clip0_1193_478)">
<path d="M0.0136566 1.06265V11.7972C0.0136566 12.3916 0.468213 12.8461 1.06263 12.8461H11.7971C12.3916 12.8461 12.8461 12.3916 12.8461 11.7972V1.06265C12.8461 0.468228 12.3916 0.0136719 11.7971 0.0136719H1.06263C0.468213 0.0136719 0.0136566 0.468228 0.0136566 1.06265ZM9.45444 10.5034H3.40534C2.81093 10.5034 2.35637 10.0489 2.35637 9.45445V3.40536C2.35637 2.81094 2.81093 2.35638 3.40534 2.35638H9.45444C10.0489 2.35638 10.5034 2.81094 10.5034 3.40536V9.45445C10.5034 10.0489 10.0489 10.5034 9.45444 10.5034ZM25.6436 15.1539H17.4966C16.2028 15.1539 15.1539 16.2029 15.1539 17.4966V25.6436C15.1539 26.9374 16.2028 27.9864 17.4966 27.9864H25.6436C26.9374 27.9864 27.9863 26.9374 27.9863 25.6436V17.4966C27.9863 16.2029 26.9374 15.1539 25.6436 15.1539ZM24.5947 25.6436H18.5456C17.9511 25.6436 17.4966 25.1891 17.4966 24.5947V18.5456C17.4966 17.9512 17.9511 17.4966 18.5456 17.4966H24.5947C25.1891 17.4966 25.6436 17.9512 25.6436 18.5456V24.5947C25.6436 25.1891 25.1891 25.6436 24.5947 25.6436ZM21.5876 0.0136719C18.056 0.0136719 15.1888 2.88087 15.1888 6.41242C15.1888 9.94397 18.056 12.8112 21.5876 12.8112C25.1191 12.8112 27.9863 9.94397 27.9863 6.41242C27.9863 2.88087 25.1191 0.0136719 21.5876 0.0136719ZM21.5876 10.5034C19.3148 10.5034 17.4966 8.6852 17.4966 6.41242C17.4966 4.13964 19.3148 2.32142 21.5876 2.32142C23.8254 2.32142 25.6786 4.13964 25.6786 6.41242C25.6786 8.6852 23.8254 10.5034 21.5876 10.5034ZM6.09771 16.8672L0.852837 26.4479C0.468213 27.1472 0.9927 27.9864 1.76195 27.9864H12.2167C13.021 27.9864 13.5105 27.1472 13.1259 26.4479L7.91594 16.8672C7.53131 16.1329 6.48234 16.1329 6.09771 16.8672ZM7.91594 21.7275L9.20967 24.1051C9.5943 24.8045 9.06981 25.6436 8.30056 25.6436H5.71309C4.90888 25.6436 4.41935 24.8045 4.80398 24.1051L6.09771 21.7275C6.48234 20.9932 7.53131 20.9932 7.91594 21.7275Z" fill="#191A1B"/>
<path fill-rule="evenodd" clip-rule="evenodd" d="M21.5876 0.0136719C18.0561 0.0136719 15.1889 2.88087 15.1889 6.41242C15.1889 9.94397 18.0561 12.8112 21.5876 12.8112C25.1192 12.8112 27.9864 9.94397 27.9864 6.41242C27.9864 2.88087 25.1192 0.0136719 21.5876 0.0136719ZM21.5875 10.4993C23.8444 10.4993 25.6739 8.66977 25.6739 6.41291C25.6739 4.15605 23.8444 2.3265 21.5875 2.3265C19.3307 2.3265 17.5011 4.15605 17.5011 6.41291C17.5011 8.66977 19.3307 10.4993 21.5875 10.4993Z" fill="#2BDF27"/>
</g>
<defs>
<clipPath id="clip0_1193_478">
<rect width="28" height="28" fill="white"/>
</clipPath>
</defs>
</svg>
